<?xml version="1.0" standalone="no"?><!-- Generator: Gravit.io --><svg xmlns="http://www.w3.org/2000/svg" xmlns:xlink="http://www.w3.org/1999/xlink" style="isolation:isolate" viewBox="474.25 226.75 214 131.134" width="214" height="131.134"><g id="Logo_Secondary"><g id="Logo"><path d=" M 572.25 241 C 572.25 238.792 574.154 237 576.5 237 C 578.846 237 580.75 238.792 580.75 241 C 580.75 243.208 578.846 245 576.5 245 C 574.154 245 572.25 243.208 572.25 241 Z " fill="rgb(4,65,189)"/><path d=" M 595.25 245 C 595.25 242.792 597.154 241 599.5 241 C 601.846 241 603.75 242.792 603.75 245 C 603.75 247.208 601.846 249 599.5 249 C 597.154 249 595.25 247.208 595.25 245 Z " fill="rgb(4,65,189)"/><path d=" M 563.25 282 C 563.25 279.792 565.154 278 567.5 278 C 569.846 278 571.75 279.792 571.75 282 C 571.75 284.208 569.846 286 567.5 286 C 565.154 286 563.25 284.208 563.25 282 Z " fill="rgb(4,65,189)"/><path d=" M 543.25 261 C 543.25 258.792 545.154 257 547.5 257 C 549.846 257 551.75 258.792 551.75 261 C 551.75 263.208 549.846 265 547.5 265 C 545.154 265 543.25 263.208 543.25 261 Z " fill="rgb(4,65,189)"/><path d=" M 533.25 297 C 533.25 294.792 535.154 293 537.5 293 C 539.846 293 541.75 294.792 541.75 297 C 541.75 299.208 539.846 301 537.5 301 C 535.154 301 533.25 299.208 533.25 297 Z " fill="rgb(4,65,189)"/><path d=" M 565.25 303 C 565.25 300.792 567.154 299 569.5 299 C 571.846 299 573.75 300.792 573.75 303 C 573.75 305.208 571.846 307 569.5 307 C 567.154 307 565.25 305.208 565.25 303 Z " fill="rgb(4,65,189)"/><path d=" M 606.25 282 C 606.25 279.792 608.154 278 610.5 278 C 612.846 278 614.75 279.792 614.75 282 C 614.75 284.208 612.846 286 610.5 286 C 608.154 286 606.25 284.208 606.25 282 Z " fill="rgb(4,65,189)"/><path d=" M 545.25 232 C 545.25 229.792 547.154 228 549.5 228 C 551.846 228 553.75 229.792 553.75 232 C 553.75 234.208 551.846 236 549.5 236 C 547.154 236 545.25 234.208 545.25 232 Z " fill="rgb(4,65,189)"/><path d=" M 530.25 249 C 530.25 246.792 532.154 245 534.5 245 C 536.846 245 538.75 246.792 538.75 249 C 538.75 251.208 536.846 253 534.5 253 C 532.154 253 530.25 251.208 530.25 249 Z " fill="rgb(4,65,189)"/><path d=" M 567.25 282 L 599.25 246 L 576.25 241 L 537.25 297 L 567.25 282 Z " fill="none" vector-effect="non-scaling-stroke" stroke-width="1.5" stroke="rgb(4,65,189)" stroke-linejoin="miter" stroke-linecap="square" stroke-miterlimit="3"/><path d=" M 534.25 249 L 531.25 273 L 537.55 297.293 L 569.618 303.378 L 581.25 282 L 610.25 282 L 599.592 245.05 L 580.25 229 L 549.533 231.95 L 557.25 254 L 547.25 261 L 534.25 249 Z " fill="none" vector-effect="non-scaling-stroke" stroke-width="1.5" stroke="rgb(4,65,189)" stroke-linejoin="miter" stroke-linecap="square" stroke-miterlimit="3"/><path d=" M 576.25 241 L 549.533 231.95 L 579.48 229.074 L 576.25 241 L 599.25 246 L 581.25 282 L 567.25 282 L 547.25 261 L 532.148 272.715 L 567.25 282 L 576.25 241 L 576.25 241 Z " fill="none" vector-effect="non-scaling-stroke" stroke-width="1.5" stroke="rgb(4,65,189)" stroke-linejoin="miter" stroke-linecap="square" stroke-miterlimit="3"/><path d=" M 569.25 303 L 567.25 282 L 557.25 254 L 576.25 241" fill="none" vector-effect="non-scaling-stroke" stroke-width="1.5" stroke="rgb(4,65,189)" stroke-linejoin="miter" stroke-linecap="square" stroke-miterlimit="3"/></g><path d=" M 492.682 336.5 L 492.682 348.848 L 489.01 348.848 L 489.01 346.292 L 489.01 346.292 Q 486.634 349.136 482.638 349.136 L 482.638 349.136 L 482.638 349.136 Q 479.65 349.136 477.688 347.444 L 477.688 347.444 L 477.688 347.444 Q 475.726 345.752 475.726 342.926 L 475.726 342.926 L 475.726 342.926 Q 475.726 340.1 477.814 338.696 L 477.814 338.696 L 477.814 338.696 Q 479.902 337.292 483.466 337.292 L 483.466 337.292 L 488.686 337.292 L 488.686 336.572 L 488.686 336.572 Q 488.686 332.756 484.438 332.756 L 484.438 332.756 L 484.438 332.756 Q 481.774 332.756 478.894 334.7 L 478.894 334.7 L 477.094 332.18 L 477.094 332.18 Q 480.586 329.408 485.014 329.408 L 485.014 329.408 L 485.014 329.408 Q 488.398 329.408 490.54 331.118 L 490.54 331.118 L 490.54 331.118 Q 492.682 332.828 492.682 336.5 L 492.682 336.5 L 492.682 336.5 Z  M 488.65 341.72 L 488.65 341.72 L 488.65 340.1 L 484.114 340.1 L 484.114 340.1 Q 479.758 340.1 479.758 342.836 L 479.758 342.836 L 479.758 342.836 Q 479.758 344.24 480.838 344.978 L 480.838 344.978 L 480.838 344.978 Q 481.918 345.716 483.844 345.716 L 483.844 345.716 L 483.844 345.716 Q 485.77 345.716 487.21 344.636 L 487.21 344.636 L 487.21 344.636 Q 488.65 343.556 488.65 341.72 Z  M 508.558 329.408 L 508.558 329.408 L 508.558 329.408 Q 512.41 329.408 515.146 332.072 L 515.146 332.072 L 515.146 332.072 Q 517.882 334.736 517.882 339.164 L 517.882 339.164 L 517.882 339.164 Q 517.882 343.592 515.164 346.364 L 515.164 346.364 L 515.164 346.364 Q 512.446 349.136 508.828 349.136 L 508.828 349.136 L 508.828 349.136 Q 505.21 349.136 502.33 345.968 L 502.33 345.968 L 502.33 355.832 L 498.298 355.832 L 498.298 329.696 L 502.33 329.696 L 502.33 333.044 L 502.33 333.044 Q 504.706 329.408 508.558 329.408 Z  M 502.258 339.308 L 502.258 339.308 L 502.258 339.308 Q 502.258 342.044 503.914 343.79 L 503.914 343.79 L 503.914 343.79 Q 505.57 345.536 507.946 345.536 L 507.946 345.536 L 507.946 345.536 Q 510.322 345.536 512.086 343.808 L 512.086 343.808 L 512.086 343.808 Q 513.85 342.08 513.85 339.326 L 513.85 339.326 L 513.85 339.326 Q 513.85 336.572 512.122 334.754 L 512.122 334.754 L 512.122 334.754 Q 510.394 332.936 507.982 332.936 L 507.982 332.936 L 507.982 332.936 Q 505.57 332.936 503.914 334.754 L 503.914 334.754 L 503.914 334.754 Q 502.258 336.572 502.258 339.308 Z  M 532.75 329.408 L 532.75 329.408 L 532.75 329.408 Q 536.602 329.408 539.338 332.072 L 539.338 332.072 L 539.338 332.072 Q 542.074 334.736 542.074 339.164 L 542.074 339.164 L 542.074 339.164 Q 542.074 343.592 539.356 346.364 L 539.356 346.364 L 539.356 346.364 Q 536.638 349.136 533.02 349.136 L 533.02 349.136 L 533.02 349.136 Q 529.402 349.136 526.522 345.968 L 526.522 345.968 L 526.522 355.832 L 522.49 355.832 L 522.49 329.696 L 526.522 329.696 L 526.522 333.044 L 526.522 333.044 Q 528.898 329.408 532.75 329.408 Z  M 526.45 339.308 L 526.45 339.308 L 526.45 339.308 Q 526.45 342.044 528.106 343.79 L 528.106 343.79 L 528.106 343.79 Q 529.762 345.536 532.138 345.536 L 532.138 345.536 L 532.138 345.536 Q 534.514 345.536 536.278 343.808 L 536.278 343.808 L 536.278 343.808 Q 538.042 342.08 538.042 339.326 L 538.042 339.326 L 538.042 339.326 Q 538.042 336.572 536.314 334.754 L 536.314 334.754 L 536.314 334.754 Q 534.586 332.936 532.174 332.936 L 532.174 332.936 L 532.174 332.936 Q 529.762 332.936 528.106 334.754 L 528.106 334.754 L 528.106 334.754 Q 526.45 336.572 526.45 339.308 Z  M 550.714 338.48 L 550.714 338.48 L 550.714 348.848 L 546.682 348.848 L 546.682 329.696 L 550.714 329.696 L 550.714 333.188 L 550.714 333.188 Q 551.686 331.424 553.396 330.416 L 553.396 330.416 L 553.396 330.416 Q 555.106 329.408 557.086 329.408 L 557.086 329.408 L 557.086 329.408 Q 560.326 329.408 562.324 331.388 L 562.324 331.388 L 562.324 331.388 Q 564.322 333.368 564.322 337.112 L 564.322 337.112 L 564.322 348.848 L 560.29 348.848 L 560.29 338.336 L 560.29 338.336 Q 560.29 333.044 555.898 333.044 L 555.898 333.044 L 555.898 333.044 Q 553.81 333.044 552.262 334.43 L 552.262 334.43 L 552.262 334.43 Q 550.714 335.816 550.714 338.48 Z  M 585.454 336.5 L 585.454 348.848 L 581.782 348.848 L 581.782 346.292 L 581.782 346.292 Q 579.406 349.136 575.41 349.136 L 575.41 349.136 L 575.41 349.136 Q 572.422 349.136 570.46 347.444 L 570.46 347.444 L 570.46 347.444 Q 568.498 345.752 568.498 342.926 L 568.498 342.926 L 568.498 342.926 Q 568.498 340.1 570.586 338.696 L 570.586 338.696 L 570.586 338.696 Q 572.674 337.292 576.238 337.292 L 576.238 337.292 L 581.458 337.292 L 581.458 336.572 L 581.458 336.572 Q 581.458 332.756 577.21 332.756 L 577.21 332.756 L 577.21 332.756 Q 574.546 332.756 571.666 334.7 L 571.666 334.7 L 569.866 332.18 L 569.866 332.18 Q 573.358 329.408 577.786 329.408 L 577.786 329.408 L 577.786 329.408 Q 581.17 329.408 583.312 331.118 L 583.312 331.118 L 583.312 331.118 Q 585.454 332.828 585.454 336.5 L 585.454 336.5 L 585.454 336.5 Z  M 581.422 341.72 L 581.422 341.72 L 581.422 340.1 L 576.886 340.1 L 576.886 340.1 Q 572.53 340.1 572.53 342.836 L 572.53 342.836 L 572.53 342.836 Q 572.53 344.24 573.61 344.978 L 573.61 344.978 L 573.61 344.978 Q 574.69 345.716 576.616 345.716 L 576.616 345.716 L 576.616 345.716 Q 578.542 345.716 579.982 344.636 L 579.982 344.636 L 579.982 344.636 Q 581.422 343.556 581.422 341.72 Z  M 595.102 322.136 L 595.102 348.848 L 591.07 348.848 L 591.07 322.136 L 595.102 322.136 L 595.102 322.136 Z  M 603.346 356.48 L 603.346 356.48 L 603.346 356.48 Q 600.718 356.48 598.594 354.572 L 598.594 354.572 L 600.43 351.296 L 600.43 351.296 Q 601.69 352.484 603.04 352.484 L 603.04 352.484 L 603.04 352.484 Q 604.39 352.484 605.236 351.512 L 605.236 351.512 L 605.236 351.512 Q 606.082 350.54 606.082 349.388 L 606.082 349.388 L 606.082 349.388 Q 606.082 348.884 598.342 329.696 L 598.342 329.696 L 602.662 329.696 L 608.386 343.808 L 614.11 329.696 L 618.43 329.696 L 609.142 352.448 L 609.142 352.448 Q 608.314 354.32 606.766 355.4 L 606.766 355.4 L 606.766 355.4 Q 605.218 356.48 603.346 356.48 Z  M 631.606 332.936 L 626.566 332.936 L 626.566 342.656 L 626.566 342.656 Q 626.566 344.024 627.286 344.834 L 627.286 344.834 L 627.286 344.834 Q 628.006 345.644 629.302 345.644 L 629.302 345.644 L 629.302 345.644 Q 630.598 345.644 631.786 344.384 L 631.786 344.384 L 633.442 347.228 L 633.442 347.228 Q 631.318 349.136 628.744 349.136 L 628.744 349.136 L 628.744 349.136 Q 626.17 349.136 624.352 347.354 L 624.352 347.354 L 624.352 347.354 Q 622.534 345.572 622.534 342.548 L 622.534 342.548 L 622.534 332.936 L 620.122 332.936 L 620.122 329.696 L 622.534 329.696 L 622.534 323.684 L 626.566 323.684 L 626.566 329.696 L 631.606 329.696 L 631.606 332.936 L 631.606 332.936 Z  M 640.678 329.696 L 640.678 348.848 L 636.646 348.848 L 636.646 329.696 L 640.678 329.696 L 640.678 329.696 Z  M 636.898 325.88 L 636.898 325.88 L 636.898 325.88 Q 636.142 325.124 636.142 324.08 L 636.142 324.08 L 636.142 324.08 Q 636.142 323.036 636.898 322.28 L 636.898 322.28 L 636.898 322.28 Q 637.654 321.524 638.698 321.524 L 638.698 321.524 L 638.698 321.524 Q 639.742 321.524 640.498 322.28 L 640.498 322.28 L 640.498 322.28 Q 641.254 323.036 641.254 324.08 L 641.254 324.08 L 641.254 324.08 Q 641.254 325.124 640.498 325.88 L 640.498 325.88 L 640.498 325.88 Q 639.742 326.636 638.698 326.636 L 638.698 326.636 L 638.698 326.636 Q 637.654 326.636 636.898 325.88 Z  M 655.006 349.136 L 655.006 349.136 L 655.006 349.136 Q 651.01 349.136 648.13 346.418 L 648.13 346.418 L 648.13 346.418 Q 645.25 343.7 645.25 339.308 L 645.25 339.308 L 645.25 339.308 Q 645.25 334.916 648.256 332.162 L 648.256 332.162 L 648.256 332.162 Q 651.262 329.408 655.582 329.408 L 655.582 329.408 L 655.582 329.408 Q 659.902 329.408 662.89 332.396 L 662.89 332.396 L 660.514 335.312 L 660.514 335.312 Q 658.03 333.152 655.51 333.152 L 655.51 333.152 L 655.51 333.152 Q 652.99 333.152 651.136 334.826 L 651.136 334.826 L 651.136 334.826 Q 649.282 336.5 649.282 339.146 L 649.282 339.146 L 649.282 339.146 Q 649.282 341.792 651.118 343.628 L 651.118 343.628 L 651.118 343.628 Q 652.954 345.464 655.636 345.464 L 655.636 345.464 L 655.636 345.464 Q 658.318 345.464 660.694 343.016 L 660.694 343.016 L 663.07 345.608 L 663.07 345.608 Q 659.578 349.136 655.006 349.136 Z  M 682.762 336.5 L 682.762 348.848 L 679.09 348.848 L 679.09 346.292 L 679.09 346.292 Q 676.714 349.136 672.718 349.136 L 672.718 349.136 L 672.718 349.136 Q 669.73 349.136 667.768 347.444 L 667.768 347.444 L 667.768 347.444 Q 665.806 345.752 665.806 342.926 L 665.806 342.926 L 665.806 342.926 Q 665.806 340.1 667.894 338.696 L 667.894 338.696 L 667.894 338.696 Q 669.982 337.292 673.546 337.292 L 673.546 337.292 L 678.766 337.292 L 678.766 336.572 L 678.766 336.572 Q 678.766 332.756 674.518 332.756 L 674.518 332.756 L 674.518 332.756 Q 671.854 332.756 668.974 334.7 L 668.974 334.7 L 667.174 332.18 L 667.174 332.18 Q 670.666 329.408 675.094 329.408 L 675.094 329.408 L 675.094 329.408 Q 678.478 329.408 680.62 331.118 L 680.62 331.118 L 680.62 331.118 Q 682.762 332.828 682.762 336.5 L 682.762 336.5 L 682.762 336.5 Z  M 678.73 341.72 L 678.73 341.72 L 678.73 340.1 L 674.194 340.1 L 674.194 340.1 Q 669.838 340.1 669.838 342.836 L 669.838 342.836 L 669.838 342.836 Q 669.838 344.24 670.918 344.978 L 670.918 344.978 L 670.918 344.978 Q 671.998 345.716 673.924 345.716 L 673.924 345.716 L 673.924 345.716 Q 675.85 345.716 677.29 344.636 L 677.29 344.636 L 677.29 344.636 Q 678.73 343.556 678.73 341.72 Z " fill-rule="evenodd" fill="rgb(0,0,0)"/></g></svg>