<?xml version="1.0" standalone="no"?>
<!DOCTYPE svg PUBLIC "-//W3C//DTD SVG 20010904//EN"
 "http://www.w3.org/TR/2001/REC-SVG-20010904/DTD/svg10.dtd">
<svg version="1.0" xmlns="http://www.w3.org/2000/svg"
 width="700.000000pt" height="700.000000pt" viewBox="0 0 700.000000 700.000000"
 preserveAspectRatio="xMidYMid meet">
<metadata>
Created by potrace 1.11, written by Peter Selinger 2001-2013
</metadata>
<g transform="translate(0.000000,700.000000) scale(0.100000,-0.100000)"
fill="#000000" stroke="none">
<path d="M3278 6995 c-2 -1 -42 -5 -89 -9 -47 -4 -95 -8 -105 -10 -10 -2 -46
-7 -79 -11 -32 -4 -68 -9 -80 -11 -11 -2 -45 -9 -75 -15 -30 -5 -66 -12 -80
-15 -236 -46 -547 -154 -800 -277 -676 -329 -1234 -873 -1576 -1537 -33 -63
-72 -144 -88 -180 -16 -36 -36 -83 -46 -105 -37 -84 -109 -298 -134 -395 -4
-14 -13 -51 -22 -82 -8 -32 -17 -68 -19 -80 -3 -13 -11 -57 -20 -98 -47 -238
-60 -384 -60 -675 0 -196 6 -309 20 -412 10 -67 14 -99 20 -148 4 -27 10 -66
15 -85 5 -19 12 -48 14 -65 27 -149 109 -419 184 -605 39 -97 131 -288 178
-370 20 -36 45 -81 56 -100 11 -19 29 -47 39 -62 11 -14 19 -31 19 -36 0 -6 4
-12 8 -14 5 -2 32 -39 61 -83 108 -161 280 -364 445 -524 80 -78 117 -111 226
-205 32 -28 201 -152 260 -191 25 -16 47 -32 50 -35 3 -3 17 -12 32 -20 14 -8
77 -44 140 -80 373 -216 823 -371 1233 -425 22 -2 56 -7 75 -10 186 -26 698
-27 838 0 16 3 104 15 147 20 61 8 206 40 322 70 373 99 714 251 1028 458 526
347 934 804 1211 1357 156 312 258 617 318 950 14 81 17 101 32 215 3 27 8 61
10 75 9 48 11 526 4 605 -15 157 -21 210 -25 225 -2 8 -7 35 -10 60 -8 59 -40
212 -70 330 -93 369 -283 780 -510 1105 -59 85 -212 281 -253 324 -172 181
-268 274 -367 356 -33 28 -62 53 -65 56 -3 3 -48 37 -100 76 -429 316 -878
516 -1399 624 -53 11 -112 22 -131 24 -19 3 -46 7 -60 10 -13 2 -52 7 -86 11
-33 3 -74 8 -90 10 -32 5 -540 14 -546 9z"/>
</g>
</svg>
